<svg width="39" height="26" viewBox="0 0 39 26" fill="none" xmlns="http://www.w3.org/2000/svg">
<path d="M2.34155 0.835449H37.0762C37.9897 0.835449 38.7303 1.61134 38.7303 2.56875V24.2287C38.7303 25.1856 37.9897 25.9615 37.0762 25.9615H2.34155C1.42798 25.9615 0.687622 25.1856 0.687622 24.2287V2.56875C0.687622 1.61134 1.42798 0.835449 2.34155 0.835449Z" fill="#F1F1F1"/>
<path d="M1.09595 25.3705L1.09619 25.3691C0.832275 25.0533 0.687012 24.6483 0.687012 24.2291V2.56875C0.687012 1.6128 1.4292 0.834961 2.34143 0.834961H37.0757C37.4949 0.834961 37.8947 0.99941 38.2017 1.29854L1.09595 25.3705Z" fill="white" fill-opacity="0.729412"/>
<path d="M15.3363 18.7856L16.6322 16.4369L15.9078 10.7964H17.6791L17.9648 14.1347L19.698 10.7964H21.5259L17.317 18.7856H15.3363ZM9.78369 14.5719C10.0571 13.1992 11.38 12.7634 13.3458 12.7634C13.4629 12.153 13.0736 12.0002 12.4122 12.0227C11.7495 12.0446 10.9513 12.2847 10.7185 12.415L10.8738 11.0428C11.3602 10.933 12.0229 10.6944 12.8593 10.6944C14.0848 10.672 15.4485 11.0633 15.1368 12.6551L14.3781 16.4023H12.6068L12.7225 15.8348C12.3419 16.2525 11.7186 16.5106 11.1401 16.5106C10.2993 16.5106 9.5531 15.9651 9.78369 14.5719ZM11.5944 14.4845C11.3406 14.9203 11.6719 15.2907 12.0612 15.2687C12.5095 15.2477 12.8987 15.0286 12.9961 14.5275C13.0145 14.3538 13.054 14.2015 13.0934 14.0278C12.9369 14.0278 12.8014 14.0278 12.645 14.0278C12.3334 14.0278 11.7889 14.1142 11.5944 14.4845ZM3.68286 16.4023L5.14734 9.23438H8.45459C9.42395 9.23438 10.5522 9.99757 10.2159 11.6743C9.91919 13.1548 8.81055 14.0278 7.48401 14.0278H6.09827L5.6228 16.4023H3.68286ZM6.37537 12.6551H7.28564C7.78088 12.6551 8.276 12.2193 8.39429 11.6743C8.53345 11.1302 8.21692 10.6944 7.74146 10.6944H6.79175L6.37537 12.6551Z" fill="#3284AE"/>
<path d="M26.9966 14.5714C27.2725 13.1982 28.6133 12.7639 30.603 12.7639C30.741 12.1525 30.3469 12.0012 29.6771 12.0232C29.0073 12.0441 28.1996 12.2842 27.9435 12.4145L28.1011 11.0423C28.6133 10.933 29.2831 10.6944 30.1302 10.6944C31.3713 10.6719 32.7307 11.0633 32.4154 12.6546L31.6471 16.4013H29.8741L29.9923 15.8352C29.5989 16.2525 28.9631 16.5106 28.3745 16.5106C27.519 16.5106 26.7632 15.9655 26.9966 14.5714ZM28.83 14.484C28.5739 14.9198 28.9285 15.2902 29.3225 15.2682C29.7756 15.2472 30.1499 15.0281 30.2484 14.5284C30.2878 14.3537 30.3075 14.201 30.3469 14.0278C30.209 14.0278 30.0514 14.0278 29.9135 14.0278C29.5786 14.0278 29.027 14.1137 28.83 14.484ZM32.4659 16.4013L33.9324 9.21143H35.7522L34.2673 16.4013H32.4659ZM20.8969 16.4013L22.3584 9.23485H25.657C26.6051 9.23485 27.7501 9.99658 27.4141 11.6738C27.1185 13.1553 26.0128 14.0278 24.6694 14.0278H23.3065L22.8127 16.4013H20.8969ZM23.5835 12.6546H24.4712C24.9662 12.6546 25.4796 12.2188 25.5979 11.6738C25.7161 11.1297 25.4205 10.6944 24.9269 10.6944H23.9788L23.5835 12.6546Z" fill="#3CA9C7"/>
</svg>
